<svg width="106" height="106" viewBox="0 0 106 106" fill="none" xmlns="http://www.w3.org/2000/svg">
<g id="Logo">
<g id="Vector">
<path fill-rule="evenodd" clip-rule="evenodd" d="M71.0389 0H100.111L94.9509 6.63068H77.1218V13.2614H86.309C93.0631 13.2614 98.5168 19.2108 98.5168 26.4773C98.5168 33.7892 93.0631 39.6932 86.309 39.6932H68.1862L72.5491 33.1534H86.351V33.108C89.749 33.108 92.4758 30.156 92.4758 26.4773C92.4758 22.7986 89.749 19.8466 86.351 19.8466H71.0808L71.0389 0Z" fill="#C12400"/>
<path fill-rule="evenodd" clip-rule="evenodd" d="M52.2864 52.2279L54.5518 59.7669H61.8512L55.9361 64.3993L58.2015 71.9383L52.2864 67.3059L46.3713 71.9383L48.6367 64.3993L42.7216 59.7669H50.0211L52.2864 52.2279ZM52.2864 10.4002L63.1937 46.9143H98.6002L90.4618 53.3179H58.9566L52.2864 31.0188L45.6162 53.3179H24.0115L41.505 67.0788L34.8348 89.3779L52.3284 75.617L69.8219 89.3779L63.1517 67.0788L72.1711 59.9486H82.0716L69.9478 69.4859L80.8969 106L52.2445 83.4284L23.592 106L34.5412 69.4859L5.88867 46.9143H41.2953L52.2864 10.4002Z" fill="#C12400"/>
</g>
</g>
</svg>
