<?xml version="1.0" encoding="utf-8"?>
<!-- Generator: Adobe Illustrator 16.0.3, SVG Export Plug-In . SVG Version: 6.00 Build 0)  -->
<!DOCTYPE svg PUBLIC "-//W3C//DTD SVG 1.1//EN" "http://www.w3.org/Graphics/SVG/1.1/DTD/svg11.dtd" [
        <!ENTITY ns_flows "http://ns.adobe.com/Flows/1.0/">
        <!ENTITY ns_extend "http://ns.adobe.com/Extensibility/1.0/">
        <!ENTITY ns_ai "http://ns.adobe.com/AdobeIllustrator/10.0/">
        <!ENTITY ns_graphs "http://ns.adobe.com/Graphs/1.0/">
        ]>
<svg version="1.1" id="Слой_1" xmlns:x="&ns_extend;" xmlns:i="&ns_ai;" xmlns:graph="&ns_graphs;"
	 xmlns="http://www.w3.org/2000/svg" xmlns:xlink="http://www.w3.org/1999/xlink" xmlns:a="http://ns.adobe.com/AdobeSVGViewerExtensions/3.0/"
	 x="0px" y="0px" width="286.695px" height="90.864px" viewBox="0 0 286.695 90.864"
	 style="enable-background:new 0 0 286.695 90.864;" xml:space="preserve">
<g>
	<path style="fill:#434343;" d="M93.441,23.277V7.574h-1.057v7.222h-9.504V7.574h-1.056v15.703h1.056v-7.459h9.504v7.459H93.441z
		 M102.98,11.9c-3.169,0-5.724,2.59-5.724,5.791c0,3.168,2.555,5.723,5.724,5.723c3.201,0,5.791-2.555,5.791-5.723
		C108.771,14.49,106.182,11.9,102.98,11.9L102.98,11.9z M103.014,12.889c2.589,0,4.734,2.078,4.734,4.803
		c0,2.691-2.146,4.77-4.734,4.77c-2.59,0-4.735-2.078-4.735-4.77C98.279,14.967,100.425,12.889,103.014,12.889L103.014,12.889z
		 M112.416,12.07v11.207h5.927c2.761,0,3.952-1.124,3.952-3.1c0-1.362-0.716-2.418-2.249-2.759c1.228-0.444,1.704-1.432,1.704-2.521
		c0-1.533-0.954-2.828-3.475-2.828L112.416,12.07L112.416,12.07z M113.438,12.957h4.838c1.874,0,2.486,0.919,2.486,2.043
		c0,1.125-0.612,2.043-2.486,2.043h-4.838V12.957z M113.438,22.393v-4.565l4.938,0.034c2.146,0,2.896,0.887,2.896,2.248
		c0,1.396-0.75,2.283-2.931,2.283H113.438z M131.084,11.9c-3.168,0-5.724,2.59-5.724,5.791c0,3.168,2.556,5.723,5.724,5.723
		c3.202,0,5.792-2.555,5.792-5.723C136.876,14.49,134.287,11.9,131.084,11.9L131.084,11.9z M131.119,12.889
		c2.589,0,4.733,2.078,4.733,4.803c0,2.691-2.146,4.77-4.733,4.77s-4.735-2.078-4.735-4.77
		C126.383,14.967,128.53,12.889,131.119,12.889L131.119,12.889z M145.596,11.9c-3.201,0-5.759,2.59-5.759,5.791
		c0,3.168,2.558,5.723,5.759,5.723c1.771,0,3.373-0.783,4.43-2.044l-0.648-0.682c-0.953,1.124-2.282,1.772-3.78,1.772
		c-2.624,0-4.734-2.078-4.734-4.77c0-2.725,2.11-4.803,4.734-4.803c1.498,0,2.827,0.646,3.78,1.77l0.648-0.646
		C148.969,12.717,147.369,11.9,145.596,11.9L145.596,11.9z M163.479,23.277V12.07h-0.577l-8.347,9.402V12.07h-0.988v11.207h0.545
		l8.313-9.401v9.401H163.479z M176.699,7.574c0,0.92-0.615,1.191-2.896,1.191c-4.157,0-6.679,1.875-6.679,5.757v3.101
		c0,3.305,2.453,5.826,5.758,5.826c3.339,0,5.759-2.59,5.759-5.758c0-3.134-2.453-5.654-5.654-5.654
		c-2.148,0-4.021,1.293-4.838,3.133v-0.885c0-3.236,2.112-4.633,5.586-4.633h0.308c2.589,0,3.68-0.545,3.68-2.078H176.699z
		 M172.882,12.99c2.624,0,4.734,2.078,4.734,4.734c0,2.658-2.042,4.77-4.734,4.77c-2.726,0-4.733-2.111-4.733-4.77
		C168.148,15.068,170.293,12.99,172.882,12.99L172.882,12.99z M192.197,23.277V12.07h-0.544l-8.347,9.402V12.07h-1.021v11.207h0.58
		l8.313-9.401v9.401H192.197z M202.417,11.9c-2.181,0-4.086,1.328-4.938,3.168l-0.035-2.998h-0.783v15.328h0.987v-6.982
		c0.853,1.772,2.657,2.998,4.77,2.998c3.202,0,5.689-2.555,5.689-5.723C208.106,14.49,205.619,11.9,202.417,11.9L202.417,11.9z
		 M202.349,12.889c2.624,0,4.735,2.078,4.735,4.803c0,2.691-2.111,4.77-4.735,4.77c-2.59,0-4.702-2.078-4.702-4.77
		C197.647,14.967,199.76,12.889,202.349,12.889L202.349,12.889z M216.827,11.9c-3.167,0-5.723,2.59-5.723,5.791
		c0,3.168,2.556,5.723,5.723,5.723c1.771,0,3.372-0.783,4.429-2.044l-0.646-0.682c-0.953,1.124-2.282,1.772-3.781,1.772
		c-2.59,0-4.733-2.078-4.733-4.77c0-2.725,2.145-4.803,4.733-4.803c1.499,0,2.828,0.646,3.781,1.77l0.646-0.646
		C220.199,12.717,218.598,11.9,216.827,11.9L216.827,11.9z M233.383,23.277h1.157l-2.109-3.235c-0.955-1.466-1.5-2.317-2.521-2.623
		c0.816-0.341,1.361-1.158,2.213-2.487l1.908-2.861h-1.192l-1.531,2.385c-1.229,1.873-1.637,2.555-3.51,2.555h-1.876V12.07H224.9
		v11.207h1.021v-5.314h2.182c1.875,0,2.315,0.648,3.509,2.557L233.383,23.277z M247.453,23.277V12.07h-0.545l-8.347,9.402V12.07
		h-1.021v11.207h0.544l8.348-9.401v9.401H247.453z M256.719,10.605c1.7,0,3.064-1.158,3.064-2.69H259
		c0,1.089-0.987,1.907-2.28,1.907c-1.297,0-2.249-0.818-2.249-1.907h-0.819C253.651,9.447,255.015,10.605,256.719,10.605
		L256.719,10.605z M261.693,23.277V12.07h-0.547l-8.346,9.402V12.07h-1.022v11.207h0.58l8.312-9.401v9.401H261.693z M82.609,33.532
		h7.732v-0.988h-8.755v11.241h1.022V33.532z M97.904,32.408c-3.203,0-5.756,2.554-5.756,5.756c0,3.168,2.554,5.757,5.756,5.757
		c3.167,0,5.757-2.589,5.757-5.757C103.661,34.962,101.072,32.408,97.904,32.408L97.904,32.408z M97.904,33.361
		c2.589,0,4.736,2.078,4.736,4.803c0,2.727-2.146,4.77-4.736,4.77c-2.589,0-4.701-2.043-4.701-4.77
		C93.203,35.439,95.315,33.361,97.904,33.361L97.904,33.361z M112.382,32.408c-3.167,0-5.724,2.554-5.724,5.756
		c0,3.168,2.556,5.757,5.724,5.757c1.771,0,3.373-0.817,4.429-2.077l-0.613-0.681c-0.987,1.124-2.316,1.771-3.815,1.771
		c-2.589,0-4.734-2.043-4.734-4.77c0-2.725,2.146-4.768,4.734-4.768c1.499,0,2.828,0.612,3.815,1.736l0.613-0.647
		C115.754,33.191,114.153,32.408,112.382,32.408L112.382,32.408z M130.846,32.544h-1.058v5.179c0,3.201-1.771,5.143-4.462,5.143
		c-2.385,0-3.952-1.396-3.952-4.359v-5.962h-1.021v6.03c0,3.371,1.906,5.279,4.87,5.279c1.637,0,3.68-0.817,4.564-2.963v1.634
		c0,2.931-1.432,4.565-4.325,4.599c-1.671,0-2.965-0.545-4.123-1.43l-0.613,0.646c1.228,1.058,2.828,1.738,4.736,1.703
		c3.509,0,5.383-2.214,5.383-5.654V32.544z M146.584,46.477v-3.679h-1.432l-4.701-10.254h-0.545l-4.735,10.254h-1.43v3.679h1.021
		v-2.691h10.833v2.691H146.584z M140.146,34.247l3.95,8.551h-7.868L140.146,34.247z M159.63,43.785V32.544h-0.781l-0.035,2.997
		c-0.853-1.873-2.758-3.133-4.975-3.133c-3.169,0-5.653,2.554-5.653,5.756c0,3.168,2.484,5.757,5.653,5.757
		c2.217,0,4.122-1.294,4.975-3.134l0.035,2.998H159.63L159.63,43.785z M153.943,42.934c-2.624,0-4.736-2.043-4.736-4.77
		c0-2.725,2.112-4.803,4.736-4.803c2.554,0,4.733,2.078,4.733,4.803C158.677,40.891,156.497,42.934,153.943,42.934L153.943,42.934z
		 M169.85,32.408c-2.18,0-4.087,1.293-4.938,3.133l-0.067-2.997h-0.784v15.363h1.022V40.89c0.816,1.77,2.657,3.03,4.769,3.03
		c3.203,0,5.688-2.589,5.688-5.757C175.54,34.962,173.053,32.408,169.85,32.408L169.85,32.408z M169.782,33.396
		c2.624,0,4.736,2.043,4.736,4.768c0,2.727-2.112,4.77-4.736,4.77c-2.589,0-4.734-2.043-4.734-4.77
		C165.047,35.439,167.193,33.396,169.782,33.396L169.782,33.396z M184.261,32.408c-3.17,0-5.759,2.554-5.759,5.756
		c0,3.168,2.589,5.757,5.759,5.757c1.77,0,3.37-0.817,4.427-2.077l-0.646-0.681c-0.955,1.124-2.283,1.771-3.78,1.771
		c-2.59,0-4.736-2.043-4.736-4.77c0-2.725,2.146-4.768,4.736-4.768c1.497,0,2.825,0.612,3.78,1.736l0.646-0.647
		C187.632,33.191,186.031,32.408,184.261,32.408L184.261,32.408z M196.354,33.532h4.43v-0.988h-9.847v0.988h4.394v10.253h1.023
		V33.532L196.354,33.532z M203.813,32.544v11.241h5.93c2.793,0,3.95-1.158,3.95-3.134c0-1.362-0.681-2.385-2.214-2.759
		c1.191-0.41,1.702-1.396,1.702-2.521c0-1.533-0.986-2.827-3.475-2.827H203.813z M204.87,33.465h4.805
		c1.873,0,2.485,0.918,2.485,2.009c0,1.124-0.612,2.044-2.485,2.044h-4.805V33.465z M204.87,42.865v-4.531h4.905
		c2.146,0,2.896,0.921,2.896,2.283c0,1.396-0.751,2.248-2.896,2.248H204.87z M222.483,32.408c-3.373,0-5.726,2.554-5.726,5.756
		c0,3.441,2.421,5.725,5.963,5.757c1.907,0,3.476-0.715,4.7-1.737l-0.58-0.612c-1.124,0.885-2.484,1.431-4.12,1.431
		c-2.896-0.034-4.906-1.771-4.906-4.668h9.982c0.169-0.611,0.067-1.771-0.239-2.52C226.774,33.805,224.968,32.408,222.483,32.408
		L222.483,32.408z M222.516,33.328c2.044,0,3.509,1.123,4.155,2.758c0.169,0.478,0.272,1.057,0.237,1.5h-9.061
		C218.018,35.235,219.859,33.328,222.516,33.328L222.516,33.328z M241.458,43.785V32.544h-1.022v5.11h-7.937v-5.11h-0.987v11.241
		h0.987v-5.178h7.937v5.178H241.458z M255.696,43.785V32.544h-0.988v5.11h-7.936v-5.11h-0.988v11.241h0.988v-5.178h7.936v5.178
		H255.696z M261.044,36.394v-3.85h-1.022v11.241h5.521c3.304,0,4.359-1.84,4.359-3.714c0-1.839-1.057-3.678-4.359-3.678
		L261.044,36.394L261.044,36.394z M272.457,43.785V32.544h-1.022v11.241H272.457z M261.078,42.832v-5.485h4.565
		c2.452,0,3.235,1.261,3.235,2.725c0,1.466-0.783,2.761-3.235,2.761L261.078,42.832L261.078,42.832z M281.721,31.08
		c1.703,0,3.031-1.16,3.031-2.693h-0.783c0,1.092-0.987,1.908-2.248,1.908c-1.293,0-2.281-0.816-2.281-1.908h-0.784
		C278.656,29.92,280.019,31.08,281.721,31.08L281.721,31.08z M286.695,43.785V32.544h-0.577l-8.347,9.401v-9.401h-0.988v11.241
		h0.544l8.313-9.402v9.402H286.695z M92.079,53.051h-1.055v5.178c0,3.202-1.772,5.109-4.463,5.109c-2.386,0-3.952-1.36-3.952-4.325
		v-5.962h-1.022v5.996c0,3.371,1.907,5.279,4.872,5.279c1.636,0,3.679-0.783,4.565-2.965v1.672c0,2.895-1.433,4.529-4.327,4.563
		c-1.635,0-2.963-0.545-4.122-1.43l-0.614,0.646c1.261,1.055,2.828,1.736,4.735,1.736c3.543-0.034,5.382-2.248,5.382-5.688
		L92.079,53.051L92.079,53.051z M106.217,64.258V53.051h-0.987v5.076h-7.938v-5.076H96.27v11.207h1.021v-5.178h7.938v5.178H106.217
		L106.217,64.258z M120.455,64.258V53.051h-0.544l-8.347,9.367v-9.367h-1.021v11.207h0.579l8.313-9.401v9.401H120.455
		L120.455,64.258z M124.782,53.051v11.207h5.928c2.794,0,3.951-1.156,3.951-3.133c0-1.363-0.682-2.385-2.214-2.76
		c1.192-0.41,1.704-1.396,1.704-2.521c0-1.532-0.955-2.793-3.478-2.793H124.782z M125.838,53.938h4.805
		c1.906,0,2.484,0.919,2.484,2.01c0,1.125-0.578,2.077-2.484,2.077h-4.805V53.938z M125.838,63.338v-4.529h4.939
		c2.112,0.033,2.861,0.92,2.861,2.281c0,1.396-0.749,2.248-2.896,2.248H125.838z M143.451,52.881c-3.373,0-5.725,2.59-5.725,5.756
		c0,3.477,2.42,5.726,5.962,5.758c1.908,0,3.477-0.716,4.701-1.704l-0.579-0.646c-1.125,0.885-2.486,1.43-4.122,1.43
		c-2.896-0.033-4.905-1.77-4.905-4.666h9.982c0.169-0.58,0.067-1.736-0.204-2.521C147.742,54.278,145.937,52.881,143.451,52.881
		L143.451,52.881z M143.484,53.834c2.044,0,3.509,1.125,4.157,2.76c0.169,0.441,0.271,1.056,0.235,1.498h-9.026
		C138.987,55.708,140.827,53.834,143.484,53.834L143.484,53.834z M159.121,52.881c-2.216,0-4.121,1.295-4.974,3.135l-0.035-2.965
		h-0.784v15.328h1.023v-7.018c0.816,1.809,2.622,3.032,4.77,3.032c3.166,0,5.654-2.554,5.654-5.759
		C164.775,55.471,162.287,52.881,159.121,52.881L159.121,52.881z M159.052,53.868c2.589,0,4.733,2.045,4.733,4.77
		c0,2.726-2.146,4.77-4.733,4.77c-2.589,0-4.736-2.044-4.736-4.77C154.316,55.913,156.463,53.868,159.052,53.868L159.052,53.868z
		 M173.53,52.881c-3.201,0-5.758,2.59-5.758,5.756c0,3.203,2.557,5.758,5.758,5.758c1.772,0,3.338-0.816,4.395-2.077l-0.612-0.681
		c-0.955,1.121-2.283,1.77-3.781,1.77c-2.624,0-4.734-2.043-4.734-4.77c0-2.725,2.11-4.77,4.734-4.77
		c1.498,0,2.826,0.614,3.781,1.738l0.612-0.646C176.868,53.698,175.302,52.881,173.53,52.881L173.53,52.881z M191.38,64.258V53.051
		h-0.545l-8.347,9.367v-9.367h-1.022v11.207h0.579l8.313-9.401v9.401H191.38L191.38,64.258z M199.863,54.006h4.427v-0.955h-9.877
		v0.955h4.427v10.252h1.023V54.006z M212.364,52.881c-3.372,0-5.722,2.59-5.722,5.756c0,3.477,2.417,5.726,5.962,5.758
		c1.904,0,3.474-0.716,4.701-1.704l-0.58-0.646c-1.124,0.885-2.488,1.43-4.121,1.43c-2.896-0.033-4.906-1.77-4.906-4.666h9.98
		c0.171-0.58,0.067-1.736-0.237-2.521C216.657,54.278,214.852,52.881,212.364,52.881L212.364,52.881z M212.399,53.834
		c2.043,0,3.51,1.125,4.155,2.76c0.171,0.441,0.271,1.056,0.238,1.498h-9.026C207.902,55.708,209.743,53.834,212.399,53.834
		L212.399,53.834z M225.14,54.006h4.427v-0.955h-9.877v0.955h4.427v10.252h1.023V54.006z"/>
	<path style="fill:#434343;" d="M26.639,88.241V74.07h-2.181v5.994h-6.541V74.07h-2.181v14.171h2.181v-6.097h6.541v6.097H26.639z
		 M33.112,85.073h5.518l1.294,3.168h2.419L36.552,74.07h-1.296l-5.857,14.171h2.419L33.112,85.073z M35.871,78.056l2.011,4.938
		h-3.985L35.871,78.056z M50.382,73.934c-4.019,0-7.221,3.236-7.221,7.223s3.203,7.256,7.221,7.256c2.078,0,3.985-0.92,5.35-2.351
		L54.3,84.733c-1.021,1.021-2.385,1.602-3.917,1.602c-2.826,0-5.042-2.147-5.042-5.178c0-2.998,2.216-5.146,5.042-5.146
		c1.533,0,2.896,0.58,3.917,1.601l1.433-1.327C54.368,74.854,52.46,73.934,50.382,73.934L50.382,73.934z M64.043,76.147H68.2V74.07
		H57.707v2.077h4.156v12.094h2.181L64.043,76.147L64.043,76.147z M77.295,73.934c-3.984,0-7.188,3.236-7.188,7.223
		c0,4.02,3.203,7.256,7.188,7.256c4.021,0,7.255-3.236,7.255-7.256C84.55,77.17,81.314,73.934,77.295,73.934L77.295,73.934z
		 M77.295,76.01c2.827,0,5.075,2.148,5.075,5.146c0,3.03-2.248,5.178-5.075,5.178c-2.793,0-5.009-2.146-5.009-5.178
		C72.286,78.159,74.502,76.01,77.295,76.01L77.295,76.01z M97.767,88.241V74.07h-4.666c-3.815,0-6.132,2.146-6.132,5.245
		c0,2.249,1.294,3.781,3.339,4.498c-0.717,0.34-1.362,1.057-2.249,2.417l-1.294,2.011h2.452l1.022-1.603
		c1.157-1.771,1.669-2.077,3.1-2.109h2.249v3.712H97.767z M95.588,76.147v6.337h-2.69c-2.146,0-3.884-0.955-3.884-3.169
		c0-2.145,1.736-3.168,3.884-3.168H95.588z M120.966,90.864v-4.666h-1.84V74.07h-2.18v12.128h-5.315V74.07h-2.179v12.128h-5.28
		V74.07h-2.18v14.171h16.794v2.623H120.966z M126.826,85.073h5.52l1.295,3.168h2.385l-5.792-14.171h-1.26l-5.86,14.171h2.42
		L126.826,85.073z M129.585,78.056l2.01,4.938h-4.021L129.585,78.056z M148.866,88.241V74.07H144.2
		c-3.781,0-6.131,2.146-6.131,5.245c0,2.249,1.293,3.781,3.338,4.498c-0.681,0.34-1.364,1.057-2.249,2.417l-1.296,2.011h2.453
		l1.057-1.603c1.159-1.771,1.636-2.077,3.102-2.109h2.213v3.712H148.866z M146.685,76.147v6.337h-2.689
		c-2.112,0-3.885-0.955-3.885-3.169c0-2.145,1.771-3.168,3.885-3.168H146.685z M170.633,88.241V74.07h-2.18v5.994h-6.54V74.07
		h-2.181v14.171h2.181v-6.097h6.54v6.097H170.633z M177.107,85.073h5.519l1.293,3.168h2.42l-5.79-14.171h-1.296l-5.857,14.171h2.417
		L177.107,85.073z M179.9,78.056l1.977,4.938h-3.984L179.9,78.056z M191.993,88.241l8.243-14.171h-2.485l-4.021,6.847l-4.055-6.847
		h-2.484l5.278,9.095l-2.997,5.076H191.993z M212.364,88.241h2.488l-3.373-5.212c-0.853-1.329-1.295-1.806-1.908-2.01
		c0.512-0.271,0.953-0.751,1.771-1.942l3.234-5.007h-2.519l-2.729,4.325c-0.815,1.191-1.157,1.602-2.35,1.602h-1.669V74.07h-2.182
		v14.171h2.182v-6.132h1.806c1.229,0,1.567,0.408,2.349,1.636L212.364,88.241z M220.371,85.073h5.519l1.261,3.168h2.418
		l-5.791-14.171h-1.26l-5.859,14.171h2.418L220.371,85.073z M223.128,78.056l2.013,4.938h-4.021L223.128,78.056z"/>
	<path style="fill:#DE2022;" d="M51.575,15.204l8.21,2.691l-4.906,6.745l4.462,3.27l4.806-6.607l4.632,6.404l4.496-3.27
		l-4.871-6.678l7.869-2.556L74.57,9.959l-7.87,2.555v-8.28c-1.839,0-3.678,0-5.552,0v8.279l-7.835-2.555L51.575,15.204z"/>
	<path style="fill:#434343;" d="M12.843,76.831l-4.259,1.36l2.557,3.542l-2.316,1.704l-2.521-3.44l-2.42,3.34l-2.315-1.703
		l2.521-3.475L0,76.831l0.885-2.761l4.089,1.328v-4.293c0.952,0,1.94,0,2.896,0v4.293l4.087-1.328L12.843,76.831z"/>
	<polygon style="fill:#434343;" points="46.056,64.258 46.056,7.574 32.293,7.574 32.293,38.743 8.823,7.574 0.545,7.574
		0.545,64.258 14.307,64.258 14.307,33.089 37.778,64.258 	"/>
</g>
</svg>